<svg width="67" height="67" viewBox="0 0 67 67" fill="none" xmlns="http://www.w3.org/2000/svg">
<path d="M59.2773 0H7.43675C3.32955 0 0 3.32955 0 7.43675V59.2773C0 63.3845 3.32955 66.7141 7.43675 66.7141H59.2773C63.3845 66.7141 66.7141 63.3845 66.7141 59.2773V7.43675C66.7141 3.32955 63.3845 0 59.2773 0Z" fill="#00D2D2"/>
<path fill-rule="evenodd" clip-rule="evenodd" d="M33.4933 46.0192C32.4589 45.2546 31.5145 44.3593 30.6845 43.3495C28.7139 40.9496 27.5079 38.0305 27.1931 34.9683C27.1808 34.8661 27.2626 34.7761 27.3689 34.7761H42.8597C43.6406 34.7761 44.2743 34.1424 44.2743 33.3616C44.2743 26.1578 38.9799 20.1438 37.0338 18.6475C36.9234 18.5616 36.952 18.3858 37.0869 18.345C38.6896 17.8544 40.4026 17.6213 42.1811 17.6908C50.1616 17.9974 56.6457 24.5348 56.891 32.5194C57.1609 41.2031 50.1984 48.3291 41.576 48.3291C38.6119 48.3291 35.84 47.4869 33.4973 46.0273L33.4933 46.0192Z" fill="white"/>
<path fill-rule="evenodd" clip-rule="evenodd" d="M9.83793 32.6952C10.1732 24.5634 16.8004 17.9443 24.9322 17.6254C28.0107 17.5028 30.8931 18.2632 33.3624 19.6737C33.387 19.69 33.4156 19.7064 33.4442 19.7227C35.8563 21.1169 37.8719 23.1324 39.262 25.5814C40.3495 27.4907 41.0118 29.5962 41.2325 31.7507C41.2448 31.8529 41.159 31.9429 41.0567 31.9429H25.5659C24.7932 31.9429 24.1513 32.5602 24.1513 33.3329C24.1513 41.4075 30.0958 47.0372 31.0852 47.8344C31.1915 47.9203 31.167 48.0838 31.0402 48.1329C29.3354 48.7625 27.4956 49.11 25.57 49.11C16.6532 49.11 9.46588 41.6978 9.83384 32.6992L9.83793 32.6952Z" fill="white"/>
</svg>
