<svg width="67" height="67" viewBox="0 0 67 67" fill="none" xmlns="http://www.w3.org/2000/svg">
<path d="M59.2773 0H7.43675C3.32955 0 0 3.32955 0 7.43675V59.2773C0 63.3845 3.32955 66.7141 7.43675 66.7141H59.2773C63.3845 66.7141 66.7141 63.3845 66.7141 59.2773V7.43675C66.7141 3.32955 63.3845 0 59.2773 0Z" fill="#00CA72"/>
<path d="M22.5881 49.1142C19.5463 47.3849 17.077 44.8296 15.4498 41.7143L15.4416 41.6979C15.045 41.0029 14.7548 40.684 14.072 40.6268C13.8962 40.6145 13.6141 40.6063 13.2012 40.6104H13.1726C10.5805 40.6104 8.4832 42.4788 8.18066 45.0545V46.2319C8.47912 48.7749 10.6296 50.6883 13.1848 50.6883H22.1752C22.5636 50.6842 22.8906 50.4307 22.9888 50.0587C23.0869 49.6825 22.9274 49.3023 22.5881 49.1102V49.1142Z" fill="white"/>
<path d="M59.592 44.8337L56.5216 41.3995L56.5011 41.379C55.8143 40.6922 55.6181 40.6063 54.7513 40.6063L33.8107 40.5941C30.679 40.5941 27.8498 38.5867 26.9259 35.7126C26.1859 33.4026 26.5497 30.9946 27.9275 29.1017C29.2562 27.2742 31.3699 26.1621 33.6185 26.0967H33.8189C37.8255 26.109 41.0839 29.3592 41.0839 33.3495C41.0839 34.948 40.254 36.0887 39.6489 36.9227L39.4812 37.1517C39.3014 37.4051 39.2768 37.7363 39.4199 38.0102C39.563 38.2882 39.8492 38.4599 40.1599 38.4599H49.555C50.0374 38.4599 50.4504 38.1492 50.5894 37.6872C50.8674 36.751 51.1536 35.5 51.1536 33.3454C51.1536 23.9707 43.6432 16.305 34.3135 16.0352V16.0229H33.8107C24.2561 16.0352 16.4801 23.8031 16.4801 33.3413C16.4801 36.1214 17.1587 38.8851 18.4425 41.3382C21.4515 47.0946 27.3388 50.6719 33.8229 50.6719L54.7431 50.6842C55.5935 50.6842 55.8429 50.5779 56.5052 49.9115L59.453 46.6367L59.592 46.4691C60.1602 45.7781 60.1602 45.5001 59.592 44.8296V44.8337Z" fill="white"/>
</svg>
