<svg width="132" height="127" viewBox="0 0 132 127" fill="none" xmlns="http://www.w3.org/2000/svg">
<path d="M21.4 93.7968C16.0264 93.792 11.0788 90.9938 8.47805 86.4887C5.87734 81.9835 6.03321 76.4811 8.88514 72.1177L35.4949 31.4164C38.2281 26.9846 43.2559 24.3225 48.6268 24.4636C53.9977 24.6047 58.8658 27.5266 61.3414 32.0953C63.817 36.6639 63.5103 42.1598 60.5403 46.4495L33.9464 87.1508C31.2415 91.292 26.4989 93.8042 21.4 93.7968Z" fill="#FB275D"/>
<path d="M66.7371 93.7968C61.3723 93.792 56.4328 91.0004 53.8364 86.506C51.2399 82.0116 51.3955 76.5222 54.2428 72.1692L80.8011 31.5645C83.4914 27.0681 88.5369 24.3423 93.9481 24.462C99.3593 24.5817 104.268 27.5277 106.738 32.1383C109.209 36.7489 108.845 42.2843 105.79 46.5619L79.2315 87.1665C76.5369 91.2888 71.8165 93.7937 66.7371 93.7968V93.7968Z" fill="#FFCC00"/>
<path d="M110.939 93.8796C119.066 93.8796 125.654 87.3027 125.654 79.1898C125.654 71.0768 119.066 64.5 110.939 64.5C102.812 64.5 96.2238 71.0768 96.2238 79.1898C96.2238 87.3027 102.812 93.8796 110.939 93.8796Z" fill="#00CA72"/>
<g opacity="0.9">
<path d="M109.577 112.84H110.832V114.526C111.46 113.288 112.698 112.66 114.079 112.66C115.712 112.66 117.111 113.432 117.703 115.064C118.241 113.468 119.676 112.66 121.237 112.66C123.407 112.66 125.129 114.024 125.129 116.894V122.634H123.892V117.037C123.892 114.867 122.761 113.755 121.021 113.755C119.246 113.755 117.99 114.939 117.99 117.324V122.634H116.752V117.037C116.752 114.867 115.604 113.755 113.864 113.755C112.07 113.755 110.832 114.939 110.832 117.324V122.634H109.577V112.84Z" fill="black"/>
<path d="M103.242 122.777C100.444 122.777 98.3987 120.75 98.3987 117.737C98.3987 114.705 100.498 112.696 103.296 112.696C106.094 112.696 108.193 114.705 108.193 117.737C108.193 120.75 106.058 122.777 103.242 122.777ZM99.6723 117.737C99.6723 120.194 101.233 121.683 103.242 121.683C105.269 121.683 106.902 120.194 106.902 117.737C106.902 115.261 105.287 113.79 103.278 113.79C101.251 113.79 99.6723 115.261 99.6723 117.737Z" fill="black"/>
<path d="M92.6129 112.696C95.0704 112.696 96.667 114.006 97.1154 116.033H95.77C95.4471 114.633 94.2632 113.772 92.6129 113.772C90.5499 113.772 89.0431 115.315 89.0431 117.737C89.0431 120.158 90.5499 121.719 92.6129 121.719C94.2632 121.719 95.4292 120.876 95.77 119.441H97.1154C96.667 121.396 95.0704 122.777 92.6129 122.777C89.8145 122.777 87.7515 120.75 87.7515 117.737C87.7515 114.723 89.8145 112.696 92.6129 112.696Z" fill="black"/>
<path d="M64.0429 112.481C65.5497 112.481 66.6081 113.163 67.1462 114.042V112.624H70.2137V122.634H67.1462V121.217C66.5901 122.096 65.5318 122.778 64.0429 122.778C61.5853 122.778 59.6479 120.769 59.6479 117.611C59.6479 114.454 61.5853 112.481 64.0429 112.481ZM62.7692 117.611C62.7692 119.208 63.7917 120.105 64.9577 120.105C66.1237 120.105 67.1462 119.226 67.1462 117.629C67.1462 116.033 66.1237 115.154 64.9577 115.154C63.7917 115.154 62.7692 116.015 62.7692 117.611Z" fill="black"/>
<path d="M52.2924 112.481C53.6199 112.481 54.75 113.091 55.3599 114.006V109.36H58.4453V122.634H55.3599V121.199C54.8217 122.114 53.7634 122.778 52.2745 122.778C49.8169 122.778 47.8795 120.769 47.8795 117.611C47.8795 114.454 49.8169 112.481 52.2924 112.481ZM51.0008 117.611C51.0008 119.208 52.0233 120.105 53.1893 120.105C54.3553 120.105 55.3778 119.226 55.3778 117.629C55.3778 116.033 54.3553 115.154 53.1893 115.154C52.0233 115.154 51.0008 116.015 51.0008 117.611Z" fill="black"/>
<path d="M43.6803 117.199C43.6803 115.835 42.9089 115.082 41.7609 115.082C40.5769 115.082 39.8235 115.835 39.8235 117.199V122.634H36.756V112.624H39.8235V113.97C40.4334 113.109 41.5097 112.517 42.8551 112.517C45.1871 112.517 46.7298 114.095 46.7298 116.786V122.634H43.6803V117.199Z" fill="black"/>
<path d="M30.3145 122.867C27.3726 122.867 25.1661 120.894 25.1661 117.629C25.1661 114.364 27.4264 112.391 30.3683 112.391C33.3102 112.391 35.5705 114.364 35.5705 117.629C35.5705 120.894 33.2743 122.867 30.3145 122.867ZM28.2695 117.629C28.2695 119.316 29.2202 120.123 30.3145 120.123C31.4087 120.123 32.4492 119.316 32.4492 117.629C32.4492 115.925 31.4267 115.136 30.3504 115.136C29.2561 115.136 28.2695 115.925 28.2695 117.629Z" fill="black"/>
<path d="M7.14059 112.624H10.2081V113.898C10.8 113.073 11.8405 112.517 13.1321 112.517C14.6568 112.517 15.8766 113.18 16.5583 114.382C17.222 113.324 18.4598 112.517 19.9307 112.517C22.4063 112.517 24.0028 114.095 24.0028 116.786V122.634H20.9532V117.199C20.9532 115.889 20.1819 115.172 19.0338 115.172C17.8499 115.172 17.1144 115.889 17.1144 117.199V122.634H14.0649V117.199C14.0649 115.889 13.2935 115.172 12.1454 115.172C10.9615 115.172 10.2081 115.889 10.2081 117.199V122.634H7.14059V112.624Z" fill="black"/>
<path d="M73.4598 125.756H76.7578L82.4126 112.625H79.1478L76.7799 118.67L74.4658 112.625H71.0575L75.1116 121.971L73.4598 125.756Z" fill="black"/>
<path d="M85.449 121.074C85.449 121.936 84.7503 122.634 83.8884 122.634C83.0265 122.634 82.3278 121.936 82.3278 121.074C82.3278 120.212 83.0265 119.513 83.8884 119.513C84.7503 119.513 85.449 120.212 85.449 121.074Z" fill="black"/>
</g>
</svg>
